<svg width="25" height="30" viewBox="0 0 25 30" fill="none" xmlns="http://www.w3.org/2000/svg">
<g clip-path="url(#clip0_10_78)">
<path d="M14.2857 1.875V3C18.3594 3.86895 21.4286 7.65234 21.4286 12.1875V13.2891C21.4286 16.0488 22.394 18.7031 24.135 20.7656L24.548 21.252C25.0167 21.8086 25.1339 22.5938 24.8437 23.2676C24.5536 23.9414 23.9174 24.375 23.2143 24.375H1.7857C1.08258 24.375 0.444797 23.9414 0.156739 23.2676C-0.131319 22.5938 -0.0161016 21.8086 0.451103 21.252L0.864942 20.7656C2.60825 18.7031 3.57142 16.0488 3.57142 13.2891V12.1875C3.57142 7.65234 6.59039 3.86895 10.7143 3V1.875C10.7143 0.839648 11.5123 0 12.5 0C13.4877 0 14.2857 0.839648 14.2857 1.875ZM12.5 30C11.5513 30 10.6417 29.6074 9.97208 28.9043C9.30244 28.2012 8.92856 27.1934 8.92856 26.25H16.0714C16.0714 27.1934 15.6975 28.2012 15.0279 28.9043C14.3582 29.6074 13.3984 30 12.5 30Z" fill="#F24E1E"/>
</g>
<defs>
<clipPath id="clip0_10_78">
<rect width="25" height="30" fill="white"/>
</clipPath>
</defs>
</svg>
