<svg width="25" height="25" viewBox="0 0 25 25" fill="none" xmlns="http://www.w3.org/2000/svg">
<g clip-path="url(#clip0_6_238)">
<path d="M24.4287 21.665L18.5839 15.8203C19.913 13.8472 20.5688 11.3818 20.2177 8.75487C19.6191 4.2866 15.957 0.650374 11.4843 0.0841141C4.83442 -0.757341 -0.757381 4.83446 0.0841233 11.4844C0.65053 15.959 4.28725 19.624 8.756 20.2197C11.383 20.5707 13.8488 19.9152 15.8214 18.5859L21.6662 24.4306C22.4288 25.1933 23.6657 25.1933 24.4284 24.4306C25.1904 23.667 25.1904 22.4267 24.4287 21.665ZM3.86225 10.1562C3.86225 6.70994 6.66596 3.90623 10.1122 3.90623C13.5585 3.90623 16.3622 6.70994 16.3622 10.1562C16.3622 13.6025 13.5585 16.4062 10.1122 16.4062C6.66596 16.4062 3.86225 13.6035 3.86225 10.1562Z" fill="#F24E1E"/>
</g>
<defs>
<clipPath id="clip0_6_238">
<rect width="25" height="25" fill="white"/>
</clipPath>
</defs>
</svg>
