<svg width="40" height="40" viewBox="0 0 40 40" fill="none" xmlns="http://www.w3.org/2000/svg">
<path d="M19.9998 16.8333C24.2082 16.8333 27.6189 13.8484 27.6189 10.1667C27.6189 6.4849 24.2082 3.5 19.9998 3.5C15.7915 3.5 12.3808 6.4849 12.3808 10.1667C12.3808 13.8484 15.7915 16.8333 19.9998 16.8333ZM23.0177 19.3333H16.982C11.2861 19.3333 6.6665 23.375 6.6665 28.3594C6.6665 29.3562 7.59031 30.1651 8.7296 30.1651H31.2713C32.4106 30.1667 33.3332 29.3594 33.3332 28.3594C33.3332 23.375 28.7141 19.3333 23.0177 19.3333Z" fill="#F24E1E"/>
<rect x="1" y="1" width="38" height="38" rx="19" stroke="#FA4B0C" stroke-width="2"/>
</svg>
